<svg width="178" height="66" viewBox="0 0 178 66" fill="none" xmlns="http://www.w3.org/2000/svg">
<path d="M33.0732 48.1958C31.348 49.6795 29.4157 50.8182 27.2764 51.6118C25.137 52.4054 22.9201 52.8022 20.6255 52.8022C18.8657 52.8022 17.1663 52.5693 15.5273 52.1035C13.9056 51.6549 12.3787 51.0166 10.9468 50.1885C9.53206 49.3431 8.23812 48.3338 7.06494 47.1606C5.89176 45.9875 4.88249 44.6935 4.03711 43.2788C3.20898 41.8468 2.56201 40.32 2.09619 38.6982C1.64762 37.0592 1.42334 35.3599 1.42334 33.6001C1.42334 31.8403 1.64762 30.141 2.09619 28.502C2.56201 26.863 3.20898 25.3361 4.03711 23.9214C4.88249 22.4894 5.89176 21.1868 7.06494 20.0137C8.23812 18.8405 9.53206 17.8398 10.9468 17.0117C12.3787 16.1663 13.9056 15.5194 15.5273 15.0708C17.1663 14.605 18.8657 14.3721 20.6255 14.3721C22.9201 14.3721 25.137 14.7689 27.2764 15.5625C29.4157 16.3389 31.348 17.4775 33.0732 18.9785L29.1396 25.4482C28.0527 24.2751 26.7674 23.3779 25.2837 22.7568C23.8 22.1185 22.2472 21.7993 20.6255 21.7993C18.9865 21.7993 17.451 22.1099 16.019 22.731C14.5871 23.3521 13.3363 24.1974 12.2666 25.2671C11.1969 26.3195 10.3516 27.5703 9.73047 29.0195C9.10938 30.4515 8.79883 31.9784 8.79883 33.6001C8.79883 35.2218 9.10938 36.7487 9.73047 38.1807C10.3516 39.5954 11.1969 40.8376 12.2666 41.9072C13.3363 42.9769 14.5871 43.8223 16.019 44.4434C17.451 45.0645 18.9865 45.375 20.6255 45.375C22.2472 45.375 23.8 45.0645 25.2837 44.4434C26.7674 43.805 28.0527 42.8993 29.1396 41.7261L33.0732 48.1958ZM42.6484 62.5586V55.4419L46.582 55.4937C47.2721 55.4937 47.9364 55.3815 48.5747 55.1572C49.2131 54.9329 49.7996 54.6224 50.3345 54.2256C50.8866 53.8288 51.3696 53.3543 51.7837 52.8022C52.1978 52.2674 52.5342 51.6808 52.793 51.0425C52.0166 51.3703 51.223 51.6981 50.4121 52.0259C49.6185 52.3537 48.8162 52.5176 48.0054 52.5176C46.2974 52.5176 44.6929 52.2157 43.1919 51.6118C41.6909 51.008 40.3711 50.154 39.2324 49.0498C38.111 47.9284 37.2225 46.5741 36.5669 44.9868C35.9285 43.3823 35.6094 41.5881 35.6094 39.604V24.2837H42.6484V39.604C42.6484 40.5874 42.7865 41.45 43.0625 42.1919C43.3558 42.9165 43.744 43.529 44.2271 44.0293C44.7101 44.5124 45.2708 44.8747 45.9092 45.1162C46.5648 45.3577 47.2635 45.4785 48.0054 45.4785C48.73 45.4785 49.4115 45.3146 50.0498 44.9868C50.7054 44.6418 51.2747 44.1932 51.7578 43.6411C52.2409 43.089 52.6204 42.4679 52.8965 41.7778C53.1725 41.0705 53.3105 40.3459 53.3105 39.604V24.2837H60.4272V48.5063C60.41 50.4559 60.0304 52.2847 59.2886 53.9927C58.5467 55.7007 57.5288 57.193 56.2349 58.4697C54.9582 59.7464 53.4658 60.7557 51.7578 61.4976C50.0498 62.2394 48.221 62.6104 46.2715 62.6104L42.6484 62.5586ZM90.0586 29.7959L84.8828 34.9976C84.624 34.2729 84.2703 33.626 83.8218 33.0566C83.3732 32.4701 82.8643 31.9784 82.2949 31.5815C81.7428 31.1847 81.139 30.8828 80.4834 30.6758C79.8278 30.4688 79.1549 30.3652 78.4648 30.3652C77.4987 30.3652 76.5843 30.5636 75.7217 30.9604C74.8763 31.3573 74.1344 31.918 73.4961 32.6426C72.875 33.3499 72.3833 34.1953 72.021 35.1787C71.6587 36.1621 71.4775 37.249 71.4775 38.4395C71.4775 39.4056 71.6587 40.3114 72.021 41.1567C72.3833 42.0021 72.875 42.744 73.4961 43.3823C74.1344 44.0207 74.8763 44.521 75.7217 44.8833C76.5843 45.2456 77.4987 45.4268 78.4648 45.4268C79.1549 45.4268 79.8192 45.3319 80.4575 45.1421C81.0959 44.9523 81.6911 44.6849 82.2432 44.3398C82.8125 43.9775 83.3128 43.5462 83.7441 43.0459C84.1927 42.5283 84.555 41.959 84.8311 41.3379L90.0068 46.5396C89.3512 47.4712 88.5921 48.3079 87.7295 49.0498C86.8841 49.7917 85.9611 50.4214 84.9604 50.939C83.9771 51.4565 82.9333 51.8447 81.8291 52.1035C80.7422 52.3796 79.6208 52.5176 78.4648 52.5176C76.5153 52.5176 74.6779 52.1553 72.9526 51.4307C71.2446 50.6888 69.7437 49.6795 68.4497 48.4028C67.173 47.1261 66.1637 45.6338 65.4219 43.9258C64.68 42.2178 64.3091 40.389 64.3091 38.4395C64.3091 36.3174 64.68 34.3333 65.4219 32.4873C66.1637 30.6413 67.173 29.0368 68.4497 27.6738C69.7437 26.2936 71.2446 25.2067 72.9526 24.4131C74.6779 23.6195 76.5153 23.2227 78.4648 23.2227C79.6208 23.2227 80.7508 23.3693 81.855 23.6626C82.9764 23.9559 84.0374 24.3872 85.0381 24.9565C86.056 25.5086 86.9876 26.1901 87.833 27.001C88.6956 27.8118 89.4375 28.7435 90.0586 29.7959ZM100.643 52H93.5264V13.2593H100.643V52ZM114.385 16.7529C114.385 17.4085 114.255 18.021 113.997 18.5903C113.755 19.1597 113.419 19.66 112.987 20.0913C112.556 20.5054 112.047 20.8418 111.46 21.1006C110.891 21.3421 110.279 21.4629 109.623 21.4629C108.967 21.4629 108.346 21.3421 107.76 21.1006C107.19 20.8418 106.69 20.5054 106.259 20.0913C105.845 19.66 105.508 19.1597 105.25 18.5903C105.008 18.021 104.887 17.4085 104.887 16.7529C104.887 16.1146 105.008 15.5107 105.25 14.9414C105.508 14.3548 105.845 13.8545 106.259 13.4404C106.69 13.0091 107.19 12.6727 107.76 12.4312C108.346 12.1724 108.967 12.043 109.623 12.043C110.279 12.043 110.891 12.1724 111.46 12.4312C112.047 12.6727 112.556 13.0091 112.987 13.4404C113.419 13.8545 113.755 14.3548 113.997 14.9414C114.255 15.5107 114.385 16.1146 114.385 16.7529ZM113.168 52H106.052V24.2837H113.168V52ZM125.642 52H118.577V24.2837H120.285L122.614 26.9751C123.753 25.9399 125.038 25.1463 126.47 24.5942C127.919 24.0249 129.429 23.7402 130.999 23.7402C132.69 23.7402 134.286 24.068 135.787 24.7236C137.288 25.362 138.599 26.2505 139.72 27.3892C140.842 28.5106 141.722 29.8304 142.36 31.3486C143.015 32.8496 143.343 34.4541 143.343 36.1621V52H136.278V36.1621C136.278 35.4375 136.14 34.756 135.864 34.1177C135.588 33.4621 135.209 32.8927 134.726 32.4097C134.243 31.9266 133.682 31.547 133.043 31.271C132.405 30.995 131.724 30.8569 130.999 30.8569C130.257 30.8569 129.558 30.995 128.903 31.271C128.247 31.547 127.678 31.9266 127.195 32.4097C126.712 32.8927 126.332 33.4621 126.056 34.1177C125.78 34.756 125.642 35.4375 125.642 36.1621V52ZM168.109 37.896C168.109 36.9299 167.92 35.9982 167.54 35.1011C167.178 34.1867 166.677 33.3844 166.039 32.6943C165.401 31.987 164.65 31.4263 163.788 31.0122C162.942 30.5809 162.036 30.3652 161.07 30.3652C160.104 30.3652 159.19 30.5291 158.327 30.8569C157.482 31.1847 156.74 31.6678 156.102 32.3062C155.48 32.9445 154.989 33.7381 154.626 34.687C154.264 35.6187 154.083 36.6883 154.083 37.896C154.083 39.0519 154.264 40.0957 154.626 41.0273C154.989 41.9417 155.48 42.7267 156.102 43.3823C156.74 44.0379 157.482 44.5469 158.327 44.9092C159.19 45.2542 160.104 45.4268 161.07 45.4268C162.036 45.4268 162.942 45.2197 163.788 44.8057C164.65 44.3743 165.401 43.8136 166.039 43.1235C166.677 42.4162 167.178 41.6139 167.54 40.7168C167.92 39.8024 168.109 38.8621 168.109 37.896ZM175.226 48.5063C175.226 50.4559 174.855 52.2847 174.113 53.9927C173.371 55.7007 172.354 57.193 171.06 58.4697C169.783 59.7464 168.282 60.7557 166.557 61.4976C164.849 62.2394 163.02 62.6104 161.07 62.6104L157.525 62.5586V55.4937L161.019 55.5454C162.123 55.5454 163.063 55.3988 163.839 55.1055C164.616 54.8294 165.271 54.4412 165.806 53.9409C166.341 53.4578 166.764 52.8971 167.074 52.2588C167.402 51.6204 167.661 50.9476 167.851 50.2402C167.575 50.6888 167.178 51.0597 166.66 51.353C166.143 51.6291 165.565 51.8534 164.926 52.0259C164.305 52.2157 163.65 52.3451 162.959 52.4141C162.287 52.4831 161.657 52.5176 161.07 52.5176C159.121 52.5176 157.283 52.1812 155.558 51.5083C153.85 50.8354 152.349 49.8779 151.055 48.6357C149.778 47.3763 148.769 45.8408 148.027 44.0293C147.285 42.2178 146.915 40.1733 146.915 37.896C146.915 35.8084 147.285 33.8675 148.027 32.0732C148.769 30.279 149.778 28.7262 151.055 27.415C152.349 26.1038 153.85 25.0773 155.558 24.3354C157.283 23.5936 159.121 23.2227 161.07 23.2227C161.967 23.2227 162.856 23.3348 163.736 23.5591C164.616 23.7834 165.47 24.0939 166.298 24.4907C167.126 24.8875 167.911 25.3534 168.653 25.8882C169.412 26.423 170.119 27.001 170.775 27.6221L173.518 24.3354H175.226V48.5063Z" fill="black"/>
</svg>
